<svg xmlns="http://www.w3.org/2000/svg" width="35" height="35"><path d="M32.8,7.7L17.5,0L2.2,7.7v19.7L17.5,35l15.3-7.7V7.7z" fill="#ff8700"/><path d="M17.5,15.3L2.2,7.7v19.7L17.5,35l15.3-7.7V7.7L17.5,15.3z" fill="#f27900"/><path d="M17.5,15.3V35l15.3-7.7V7.7L17.5,15.3z" fill="#e57200"/><path d="M24.3 17.3c0-.5.1-.8.2-1-1.2.8-2.7 2.1-3.2 3.1-.1.2-.2.5-.2.9 0 2.3 1.9 6.6 3.3 5.9.6-.3 1.7-2.2 2.6-4.4-.1.1-.2.2-.3.2-.9.5-2.4-3.3-2.4-4.7h0zm2.2-2.2c-.5.3-.7.5-.7 1.2 0 1.5 1 3.9 1.9 3.5.5-.2 1.4-2.9 1.4-4.8-.1-.9-1.4-.5-2.6.1z" fill="#fff"/></svg>