<svg xmlns="http://www.w3.org/2000/svg" version="1.1" xmlns:xlink="http://www.w3.org/1999/xlink" xmlns:svgjs="http://svgjs.dev/svgjs" width="512" height="512"><svg xmlns="http://www.w3.org/2000/svg" width="512" height="512"><path d="M480 112L256 0 32 112v288l224 112 224-112z" fill="#ff8700"></path><path d="M256 224L32 112v288l224 112 224-112V112z" fill="#f27900"></path><path d="M256 224v288l224-112V112z" fill="#e57200"></path><path d="M355.4 252.5c0-8 1.5-11.4 3.6-14.8-18 11.7-39.6 30.9-46.5 45-1.5 3.4-2.4 8-2.4 13.4 0 33.9 28.5 96.6 48.6 86.5 9.3-4.7 25-31.9 37.9-64.7-1.7 1.5-3.1 2.4-4.9 3.3-14.8 7.5-36.3-47-36.3-68.7zm31.8-31.1c-7.8 3.9-10.8 7.3-10.8 17.2 0 21.7 15.3 57.5 27.6 51.4 6.9-3.4 20.4-43 20.4-70 0-13.4-18.6-7.9-37.2 1.4z" fill="#fff"></path></svg><style>@media (prefers-color-scheme: light) { :root { filter: none; } }
@media (prefers-color-scheme: dark) { :root { filter: none; } }
</style></svg>