<?xml version="1.0" standalone="no"?>
<!DOCTYPE svg PUBLIC "-//W3C//DTD SVG 20010904//EN"
 "http://www.w3.org/TR/2001/REC-SVG-20010904/DTD/svg10.dtd">
<svg version="1.0" xmlns="http://www.w3.org/2000/svg"
 width="700.000000pt" height="700.000000pt" viewBox="0 0 700.000000 700.000000"
 preserveAspectRatio="xMidYMid meet">
<metadata>
Created by potrace 1.14, written by Peter Selinger 2001-2017
</metadata>
<g transform="translate(0.000000,700.000000) scale(0.100000,-0.100000)"
fill="#000000" stroke="none">
<path d="M1968 6234 l-1528 -764 0 -1970 0 -1970 1532 -766 1533 -766 1533
766 1532 766 -2 1968 -3 1967 -1530 767 c-841 422 -1532 767 -1535 767 -3 0
-692 -344 -1532 -765z m3810 -2169 c24 -29 25 -32 19 -150 -13 -287 -148 -747
-250 -857 -21 -22 -35 -28 -69 -28 -38 0 -47 5 -98 58 -125 129 -230 421 -230
642 0 144 24 182 165 252 161 82 283 119 374 115 56 -3 67 -7 89 -32z m-894
-362 c-22 -53 -29 -167 -15 -263 37 -248 189 -615 313 -755 81 -90 133 -106
201 -60 l37 26 -16 -43 c-10 -24 -48 -113 -86 -198 -147 -329 -314 -586 -412
-637 -67 -34 -142 -13 -227 65 -159 145 -324 487 -405 839 -31 136 -39 344
-16 420 41 136 282 390 556 587 43 31 80 56 82 56 1 0 -4 -17 -12 -37z"/>
</g>
</svg>
