<svg xmlns="http://www.w3.org/2000/svg" baseProfile="tiny" width="32" height="32" overflow="visible"><path fill="#ff8700" d="M30,7L16,0L2,7v18l14,7l14-7V7z"/><path fill="#f27900" d="M16,14L2,7v18l14,7l14-7V7L16,14z"/><path fill="#e57200" d="M16,14v18l14-7V7L16,14z"/><path fill="#fff" d="M22.2 15.8c0-.5.1-.7.2-.9-1.1.7-2.5 1.9-2.9 2.8-.1.2-.1.5-.1.8 0 2.1 1.8 6 3 5.4.6-.3 1.6-2 2.4-4-.1.1-.2.1-.3.2-.9.4-2.3-3-2.3-4.3h0zm2-2c-.5.2-.7.5-.7 1.1 0 1.4 1 3.6 1.7 3.2.4-.2 1.3-2.7 1.3-4.4 0-.8-1.1-.4-2.3.1z"/></svg>
